<svg viewBox="0 0 32 32" xmlns="http://www.w3.org/2000/svg" fill-rule="evenodd" clip-rule="evenodd" stroke-linejoin="round" stroke-miterlimit="1.414"><path d="M16 0l14 8v16l-14 8-14-8V8l14-8z" fill="#e45264"/><path d="M30 24l-14 8V16l14 8z" fill="#f35323"/><path d="M2 24l14 8V16L2 24z" fill="#df382a"/><path d="M30 8v16l-14-8 14-8z" fill="#f97036"/><path d="M2 8.001V24l14-8L2 8v.001z" fill="#e45264"/><path d="M16 0l14 8.001L16 16V0z" fill="#ea605c"/><path d="M2 8l14 8V0L2 8z" fill="#d43747"/><path d="M10 20.009h1.802v-2.881h.993l1.532 2.88h2.023l-1.814-3.2c.858-.38 1.422-1.127 1.422-2.304 0-1.9-1.385-2.489-3.077-2.489H10v7.994zm1.802-4.316V13.45h.932c.944 0 1.459.27 1.459 1.054 0 .785-.515 1.19-1.46 1.19h-.931v-.001zm7.246 4.463c.588 0 1.189-.319 1.618-.748h.049l.123.6h1.47v-8.594h-1.801v2.072l.073.932c-.417-.392-.821-.637-1.496-.637-1.287 0-2.525 1.201-2.525 3.187 0 1.986.98 3.188 2.489 3.188zm.466-1.471c-.7 0-1.104-.54-1.104-1.741 0-1.153.515-1.692 1.091-1.692.331 0 .687.098 1.006.392v2.489c-.295.405-.601.552-.993.552z" fill="#fff" fill-rule="nonzero"/></svg>