<svg viewBox="0 0 32 32" xmlns="http://www.w3.org/2000/svg" fill-rule="evenodd" clip-rule="evenodd" stroke-linejoin="round" stroke-miterlimit="1.414"><path d="M16 0l14 8v16l-14 8-14-8V8l14-8z" fill="#f8ab46"/><path d="M30 24l-14 8V16l14 8z" fill="#f97939"/><path d="M2 24l14 8V16L2 24z" fill="#f66517"/><path d="M30 8v16l-14-8 14-8z" fill="#ff8f4a"/><path d="M2 8.001V24l14-8L2 8v.001z" fill="#f8ab46"/><path d="M16 0l14 8.001L16 16V0z" fill="#f9a246"/><path d="M2 8l14 8V0L2 8z" fill="#eb8f2c"/><path d="M10 20.009h1.802v-2.881h.993l1.533 2.88h2.023l-1.815-3.2c.859-.38 1.422-1.127 1.422-2.304 0-1.9-1.385-2.489-3.077-2.489H10v7.994zm1.802-4.316V13.45h.932c.944 0 1.459.27 1.459 1.054 0 .785-.515 1.19-1.459 1.19h-.932v-.001zm6.756 4.463c.686 0 1.25-.319 1.765-.772h.05l.122.625h1.471v-3.482c0-1.864-.858-2.746-2.415-2.746-.957 0-1.827.33-2.6.797l.65 1.189c.589-.344 1.092-.552 1.606-.552.663 0 .92.343.957.883-2.403.245-3.42.944-3.42 2.219 0 1.03.698 1.839 1.814 1.839zm.613-1.398c-.43 0-.7-.184-.7-.576 0-.466.418-.834 1.693-1.005v1.066c-.319.32-.589.515-.993.515z" fill="#fff" fill-rule="nonzero"/></svg>