<?xml version="1.0" encoding="UTF-8"?>
<svg width="321px" height="225px" viewBox="0 0 321 225" version="1.1" xmlns="http://www.w3.org/2000/svg" xmlns:xlink="http://www.w3.org/1999/xlink">
    <title>temp-MySQL-Icon</title>
    <defs>
        <linearGradient x1="100%" y1="25.445343%" x2="7.3605924%" y2="60.8711163%" id="linearGradient-1">
            <stop stop-color="#428CFF" offset="0%"></stop>
            <stop stop-color="#FC4B53" offset="100%"></stop>
        </linearGradient>
    </defs>
    <g id="Page-1" stroke="none" stroke-width="1" fill="none" fill-rule="evenodd">
        <g id="temp-MySQL-Icon" transform="translate(0.559571, 0.644000)" fill="url(#linearGradient-1)" fill-rule="nonzero">
            <path d="M35.7101449,174.305463 L35.7101449,58.1850613 L36.4593088,58.1850613 L49.6945373,85.6544036 L82.9074693,147.085842 L116.869565,85.4046823 L129.605351,59.9331104 L130.354515,59.9331104 L130.354515,174.305463 L166.06466,174.305463 L166.06466,0 L125.60981,0 L83.4069119,81.6588629 L82.9074693,81.6588629 L40.2051282,0 L0,0 L0,174.305463 L35.7101449,174.305463 Z M229.351171,224.249721 C240.671869,224.249721 249.370495,221.835748 255.447046,217.007804 C261.523597,212.179859 266.226682,204.68822 269.556299,194.532887 L269.556299,194.532887 L320,43.2017837 L285.538462,43.2017837 L266.309922,104.383501 L256.570792,142.341137 L255.072464,142.341137 L245.583055,104.383501 L226.354515,43.2017837 L189.645485,43.2017837 L235.594203,181.047938 L231.09922,195.531773 L206.376812,195.531773 L206.376812,224.249721 L229.351171,224.249721 Z" id="My"></path>
        </g>
    </g>
</svg>