<svg viewBox="0 0 32 32" xmlns="http://www.w3.org/2000/svg" fill-rule="evenodd" clip-rule="evenodd" stroke-linejoin="round" stroke-miterlimit="1.414"><path d="M16 0l14 8v16l-14 8-14-8V8l14-8z" fill="#d432b3"/><path d="M30 24l-14 8V16l14 8z" fill="#db2939"/><path d="M2 24l14 8V16L2 24z" fill="#bc1661"/><path d="M30 8v16l-14-8 14-8z" fill="#dd4163"/><path d="M2 8.001V24l14-8L2 8v.001z" fill="#d432b3"/><path d="M16 0l14 8.001L16 16V0z" fill="#db4092"/><path d="M2 8l14 8V0L2 8z" fill="#c11a98"/><path d="M11 20.009h5.125v-1.52h-3.323v-1.84h2.722v-1.508h-2.722v-1.606h3.2v-1.52H11v7.994zm8.815.147c.589 0 1.03-.123 1.349-.22l-.282-1.313c-.16.062-.38.123-.576.123-.479 0-.785-.282-.785-.969v-2.44h1.459v-1.41h-1.46V12.31h-1.495l-.208 1.619-.932.073v1.337h.834v2.464c0 1.41.588 2.354 2.096 2.354v-.001z" fill="#fff" fill-rule="nonzero"/></svg>