<svg viewBox="0 0 32 32" xmlns="http://www.w3.org/2000/svg" fill-rule="evenodd" clip-rule="evenodd" stroke-linejoin="round" stroke-miterlimit="1.414"><path d="M16 .002L30 8v16l-14 8.002L2 24V8L16 .002z" fill="#7775f9"/><path d="M16 0l14 8.001L16 16V0z" fill="#8470f8"/><path d="M2 8l14 8V0L2 8z" fill="#6f5af0"/><path d="M30 24l-14 8V16l14 8z" fill="#7d3fe7"/><path d="M2 24l14 8V16L2 24z" fill="#6549d6"/><path d="M30 8v16l-14-8 14-8z" fill="#905ce9"/><path d="M2 8.001V24l14-8L2 8v.001z" fill="#7775f9"/><path d="M10 20.009h5.124v-1.52h-3.322v-1.84h2.722v-1.508h-2.722v-1.606h3.2v-1.52H10v7.994zm8.606.147c1.63 0 2.501-.858 2.501-1.962 0-1.115-.87-1.545-1.642-1.827-.626-.232-1.19-.38-1.19-.772 0-.306.221-.478.687-.478.429 0 .846.196 1.287.515l.81-1.079c-.528-.392-1.214-.772-2.146-.772-1.41 0-2.33.772-2.33 1.9 0 1.005.87 1.508 1.606 1.79.626.245 1.239.429 1.239.834 0 .318-.233.515-.773.515-.515 0-1.017-.221-1.569-.638l-.81 1.128c.614.503 1.533.846 2.33.846z" fill="#fff" fill-rule="nonzero"/></svg>